{"accessors" : [{"bufferView" : 0, "byteOffset" : 0, "componentType" : 5123, "count" : 27576, "type" : "SCALAR", "max" : [26982], "min" : [0]}, {"bufferView" : 1, "byteOffset" : 0, "componentType" : 5126, "count" : 26983, "type" : "VEC3", "max" : [67.9540023803711, 57.375999450683594, 126.99299621582031], "min" : [-42, -51.707000732421875, 0.003000000026077032], "name" : "POSITION"}, {"bufferView" : 1, "byteOffset" : 12, "componentType" : 5126, "count" : 26983, "type" : "VEC3", "max" : [1.0000044107437134, 0.997869074344635, 1.0000044107437134], "min" : [-1.0000044107437134, -0.997869074344635, -1.0000044107437134], "name" : "NORMAL"}], "asset" : {"generator" : "Aspose.3D 23.4.0", "version" : "2.0"}, "buffers" : [{"uri" : "data:application/octet-stream;base64,", "byteLength" : 716984}], "bufferViews" : [{"buffer" : 0, "byteOffset" : 0, "byteLength" : 55152, "target" : 34963}, {"buffer" : 0, "byteOffset" : 55156, "byteLength" : 661824, "byteStride" : 24, "target" : 34962}], "meshes" : [{"primitives" : [{"attributes" : {"POSITION" : 1, "NORMAL" : 2}, "indices" : 0, "mode" : 4}], "name" : ""}], "nodes" : [{"mesh" : 0, "name" : ""}], "scene" : 0, "scenes" : [{"nodes" : [0]}]}