<?xml version="1.0" standalone="no"?>
<!DOCTYPE svg PUBLIC "-//W3C//DTD SVG 20010904//EN"
 "http://www.w3.org/TR/2001/REC-SVG-20010904/DTD/svg10.dtd">
<svg version="1.0" xmlns="http://www.w3.org/2000/svg"
 width="2048.000000pt" height="1949.000000pt" viewBox="0 0 2048.000000 1949.000000"
 preserveAspectRatio="xMidYMid meet">

<g transform="translate(0.000000,1949.000000) scale(0.100000,-0.100000)"
fill="#000000" stroke="none">
<path d="M1 9753 c0 -5356 2 -9733 4 -9728 9 21 104 624 110 690 38 435 341
797 1002 1193 491 295 1143 584 2388 1057 1536 585 2039 792 2628 1086 340
170 593 313 832 472 156 103 382 273 394 295 5 9 16 67 25 127 80 556 77 1189
-8 2016 l-13 126 -128 174 c-299 406 -438 604 -668 947 -302 451 -520 810
-683 1127 -121 236 -178 381 -203 520 -19 105 -26 157 -52 375 -23 195 -32
225 -85 286 -327 378 -545 773 -697 1265 -168 540 -198 1018 -86 1369 52 162
154 305 270 377 68 42 66 30 49 244 -18 232 -40 709 -40 877 0 808 234 1635
667 2362 511 856 1326 1571 2278 1996 554 247 1120 394 1750 456 172 17 826
17 1005 0 532 -50 1047 -171 1525 -359 1499 -591 2608 -1798 3015 -3282 98
-354 160 -804 160 -1154 0 -152 -23 -667 -40 -907 -6 -74 -10 -162 -10 -195 0
-59 1 -62 39 -90 128 -99 222 -277 268 -510 25 -127 25 -511 0 -675 -93 -596
-372 -1246 -718 -1671 -40 -49 -41 -55 -120 -474 -70 -374 -87 -438 -183 -653
-199 -446 -549 -1034 -1364 -2294 l-250 -388 -9 -97 c-4 -54 -8 -330 -8 -613
1 -397 5 -565 18 -735 20 -246 44 -499 52 -532 9 -38 250 -227 510 -400 274
-182 546 -338 930 -533 571 -289 1110 -523 2395 -1038 646 -260 814 -328 1100
-449 1080 -458 1677 -796 2011 -1140 194 -199 275 -347 299 -542 12 -93 108
-690 115 -706 2 -5 4 4372 4 9728 l1 9737 -10240 0 -10240 0 1 -9737z"/>
</g>
</svg>
