<?xml version="1.0" standalone="no"?>
<!DOCTYPE svg PUBLIC "-//W3C//DTD SVG 20010904//EN"
 "http://www.w3.org/TR/2001/REC-SVG-20010904/DTD/svg10.dtd">
<svg version="1.0" xmlns="http://www.w3.org/2000/svg"
 width="12.000000pt" height="12.000000pt" viewBox="0 0 512.000000 512.000000"
 preserveAspectRatio="xMidYMid meet">

<g transform="translate(0.000000,512.000000) scale(0.100000,-0.100000)"
fill="#FFFFFF" stroke="none">
<path d="M331 4712 c-99 -50 -112 -178 -28 -260 23 -22 247 -219 497 -437 250
-217 456 -399 458 -404 2 -5 -37 -37 -85 -72 -235 -170 -576 -490 -772 -727
-142 -172 -153 -191 -153 -253 0 -60 16 -85 157 -256 253 -304 584 -604 900
-815 436 -292 913 -444 1325 -425 339 17 704 133 1025 327 47 29 91 50 98 47
7 -3 201 -170 432 -372 231 -202 434 -375 450 -386 43 -27 122 -26 165 4 70
46 93 140 54 208 -11 19 -353 324 -760 679 -2288 1993 -2966 2585 -3442 3000
-79 69 -157 133 -175 143 -41 22 -102 22 -146 -1z m1381 -1491 l176 -153 -34
-63 c-98 -178 -125 -381 -79 -585 26 -110 106 -258 188 -346 168 -180 357
-264 597 -264 179 0 338 51 479 155 l62 46 194 -168 c106 -93 194 -171 194
-175 1 -10 -155 -92 -272 -142 -126 -54 -263 -96 -397 -122 -142 -27 -388 -25
-539 5 -533 105 -1106 490 -1620 1088 l-54 63 74 87 c105 124 335 351 469 464
155 131 361 279 375 271 6 -4 91 -76 187 -161z m791 -689 c191 -167 345 -308
341 -313 -9 -16 -96 -56 -158 -74 -43 -13 -85 -16 -155 -13 -85 3 -105 8 -171
39 -245 117 -349 379 -249 626 13 34 25 50 33 46 6 -4 167 -144 359 -311z"/>
<path d="M2370 4049 c-41 -5 -122 -18 -180 -30 -256 -52 -320 -90 -328 -198
-5 -73 20 -121 79 -151 50 -26 81 -25 184 5 156 45 258 59 435 59 132 0 188
-4 278 -22 365 -73 717 -257 1102 -574 139 -115 386 -358 499 -491 l73 -87
-73 -87 c-41 -49 -149 -163 -242 -255 -92 -92 -172 -179 -177 -193 -27 -72 0
-157 62 -195 45 -27 122 -27 168 1 83 50 507 504 596 639 40 59 37 127 -7 190
-133 190 -513 583 -739 764 -591 473 -1183 687 -1730 625z"/>
</g>
</svg>
