<?xml version="1.0" standalone="no"?>
<!DOCTYPE svg PUBLIC "-//W3C//DTD SVG 20010904//EN"
 "http://www.w3.org/TR/2001/REC-SVG-20010904/DTD/svg10.dtd">
<svg version="1.0" xmlns="http://www.w3.org/2000/svg"
 width="361.000000pt" height="359.000000pt" viewBox="0 0 361.000000 359.000000"
 preserveAspectRatio="xMidYMid meet">

<g transform="translate(0.000000,359.000000) scale(0.100000,-0.100000)"
fill="#000000" stroke="none">
<path d="M1822 2880 c-94 -14 -157 -53 -278 -174 -144 -144 -620 -706 -717
-846 -98 -142 -103 -294 -14 -465 82 -155 587 -572 836 -689 170 -79 313 -33
507 166 192 196 616 717 711 874 89 146 83 271 -18 423 -36 53 -169 182 -464
447 -247 221 -389 288 -563 264z m263 -124 c161 -74 186 -270 33 -253 -139 17
-255 191 -172 256 35 27 77 26 139 -3z m-207 -200 c80 -41 132 -114 132 -185
0 -51 -43 -91 -98 -91 -76 0 -186 76 -213 147 -13 34 -11 95 4 114 32 42 110
48 175 15z m500 -62 c107 -44 179 -187 122 -244 -14 -14 -33 -20 -68 -20 -109
0 -230 131 -206 225 13 53 79 70 152 39z m-178 -224 c72 -37 130 -122 130
-190 0 -22 -10 -41 -30 -62 -28 -28 -36 -30 -80 -26 -99 10 -197 99 -207 190
-6 55 8 85 50 103 37 16 86 11 137 -15z m489 -49 c49 -25 105 -89 121 -135 30
-91 -24 -153 -112 -127 -57 17 -104 54 -139 109 -36 57 -40 121 -9 152 26 26
88 26 139 1z m-1173 -206 c102 -60 143 -185 81 -243 -49 -45 -134 -36 -209 21
-135 103 -108 270 41 252 24 -3 64 -16 87 -30z m1013 -34 c71 -51 111 -120
111 -188 -1 -112 -136 -124 -239 -22 -118 118 -78 268 63 237 21 -5 51 -17 65
-27z m-1375 -315 c117 -49 180 -183 123 -267 -59 -88 -225 -60 -303 52 -25 36
-29 52 -29 107 0 61 2 66 35 93 28 24 43 29 87 29 30 0 68 -6 87 -14z m889
-122 c116 -82 143 -225 50 -269 -123 -59 -307 124 -249 247 10 20 27 40 39 47
38 19 114 7 160 -25z m-338 -368 c91 -42 140 -122 133 -215 -4 -46 -10 -59
-38 -84 -30 -27 -37 -29 -96 -25 -50 3 -72 10 -106 34 -120 84 -140 254 -35
299 46 20 85 18 142 -9z"/>
</g>
</svg>
